<?xml version="1.0" encoding="UTF-8"?>
<svg version="1.1" xmlns="http://www.w3.org/2000/svg" width="560" height="445">
<path d="M0 0 C1.78942795 -0.03133709 3.57865826 -0.07876604 5.3671875 -0.14355469 C18.39472846 -0.60869389 26.29016776 0.96113623 37.03100586 8.51489258 C38.85096448 9.55938405 40.68216601 10.58491939 42.53100586 11.57739258 C43.39338867 12.04532227 44.25577148 12.51325195 45.14428711 12.99536133 C50.72404208 15.93247186 56.37662561 18.72484802 62.03100586 21.51489258 C62.03100586 19.20489258 62.03100586 16.89489258 62.03100586 14.51489258 C61.21245117 14.43883789 60.39389648 14.3627832 59.55053711 14.28442383 C55.09795074 13.31088386 51.65501812 11.44108244 47.71850586 9.20239258 C46.99083008 8.81116211 46.2631543 8.41993164 45.51342773 8.0168457 C44.8218457 7.62819336 44.13026367 7.23954102 43.41772461 6.83911133 C42.7908374 6.48937256 42.1639502 6.13963379 41.51806641 5.77929688 C39.63200819 4.17563647 39.40449933 2.91745811 39.03100586 0.51489258 C43.99722935 0.4902416 48.96341752 0.47205609 53.9296875 0.45996094 C55.62044901 0.45492068 57.31120615 0.44808853 59.00195312 0.43945312 C61.42701293 0.42737401 63.8520153 0.42166135 66.27709961 0.41723633 C67.41773109 0.4094944 67.41773109 0.4094944 68.58140564 0.40159607 C70.39833156 0.4014002 72.21513713 0.45291981 74.03100586 0.51489258 C75.03100586 1.51489258 75.03100586 1.51489258 75.14453125 5.48388672 C75.14437206 7.25594864 75.13867371 9.02801518 75.12866211 10.80004883 C75.12724716 11.73086777 75.12583221 12.66168671 75.12437439 13.62071228 C75.11875758 16.60630449 75.10620226 19.59182287 75.09350586 22.57739258 C75.08849302 24.59627171 75.08392974 26.61515201 75.07983398 28.6340332 C75.06878269 33.59434829 75.05150681 38.5546079 75.03100586 43.51489258 C70.55614782 42.73982464 67.50797684 41.23404977 63.59350586 38.88989258 C58.85820925 36.09982932 54.09731511 33.4942758 49.15600586 31.07739258 C43.1569769 28.1320454 37.33491949 24.94234693 31.53540039 21.62255859 C30.28437776 20.90752867 29.03055654 20.19736784 27.77368164 19.49267578 C26.17278747 18.59444362 24.58183786 17.67854755 22.99194336 16.76098633 C19.49907907 15.29103421 16.92811438 15.21191987 13.15600586 15.32739258 C12.00358398 15.35446289 10.85116211 15.3815332 9.66381836 15.40942383 C8.79499023 15.44422852 7.92616211 15.4790332 7.03100586 15.51489258 C15.69200478 20.40675308 24.34737232 25.26042198 33.28100586 29.63989258 C40.0732467 32.97679773 46.61527439 36.62279013 53.15698242 40.43237305 C56.72197329 42.4916708 60.31555128 44.5004343 63.90600586 46.51489258 C64.96948242 47.1122522 64.96948242 47.1122522 66.05444336 47.72167969 C67.71304375 48.65320265 69.37198561 49.58411758 71.03100586 50.51489258 C70.41914076 53.93605832 69.15851294 55.9581526 67.01147461 58.66723633 C66.40110352 59.44389648 65.79073242 60.22055664 65.16186523 61.02075195 C64.19990234 62.22441406 64.19990234 62.22441406 63.21850586 63.45239258 C62.58879883 64.2509668 61.9590918 65.04954102 61.31030273 65.87231445 C59.55756096 68.09220881 57.79655298 70.305176 56.03100586 72.51489258 C54.81864258 74.03276367 54.81864258 74.03276367 53.58178711 75.58129883 C53.0700293 76.21938477 52.55827148 76.8574707 52.03100586 77.51489258 C46.91884184 76.96031857 43.07825828 74.48060193 38.71850586 71.95239258 C32.77343798 68.57018831 26.80161856 65.33030296 20.65600586 62.32739258 C15.00858018 59.55972079 9.59298394 56.54996209 4.19506836 53.31567383 C-0.34166312 50.73365752 -5.01476854 48.44688081 -9.71508789 46.17895508 C-12.49054924 44.82680724 -14.76906178 43.71482494 -16.96899414 41.51489258 C-17.16430664 38.47583008 -17.16430664 38.47583008 -17.09399414 34.88989258 C-17.07594727 33.70137695 -17.05790039 32.51286133 -17.03930664 31.28833008 C-17.01610352 30.3730957 -16.99290039 29.45786133 -16.96899414 28.51489258 C-12.49321242 28.51489258 -10.65991059 29.43152728 -6.71899414 31.45239258 C-5.79654907 31.9238269 -5.79654907 31.9238269 -4.85546875 32.40478516 C0.31099321 35.07363551 5.36618166 37.92996949 10.41455078 40.81420898 C17.52632039 44.85165079 24.78408125 48.60311603 32.05029297 52.35351562 C36.11146001 54.45298299 40.14788092 56.55296049 44.08959961 58.87036133 C46.76029998 60.67756031 46.76029998 60.67756031 49.03100586 60.51489258 C50.02100586 58.53489258 51.01100586 56.55489258 52.03100586 54.51489258 C51.23436523 54.28930664 50.43772461 54.0637207 49.61694336 53.83129883 C45.01809738 52.14305145 40.92399539 49.84106647 36.65600586 47.45239258 C26.2088075 41.67553612 15.68461136 36.05539101 5.13214111 30.47384644 C-2.27369158 26.55640596 -9.67312978 22.63518759 -16.96899414 18.51489258 C-16.99583726 15.70232977 -17.01575602 12.89002017 -17.03149414 10.07739258 C-17.03987305 9.27495117 -17.04825195 8.47250977 -17.05688477 7.64575195 C-17.06550844 5.60194037 -17.02127564 3.55805356 -16.96899414 1.51489258 C-14.08881735 -1.36528421 -4.05067976 0.05454598 0 0 Z " fill="#EF6E3D" transform="translate(57.968994140625,176.485107421875)"/>
<path d="M0 0 C2.79004836 2.02278506 4.67141447 3.88676314 6.5 6.8125 C5.5 9.8125 5.5 9.8125 2.75 11.5 C-0.37623157 12.7625166 -2.19181059 13.27197075 -5.5 12.8125 C-6.16 12.1525 -6.82 11.4925 -7.5 10.8125 C-10.08354218 10.64562552 -10.08354218 10.64562552 -12.5 10.8125 C-9.64600878 12.71516081 -7.27907204 13.69521039 -4.0625 14.8125 C4.75763863 17.88454828 4.75763863 17.88454828 7.25 21 C8.84854267 24.59672101 8.97971981 26.90621011 8.5 30.8125 C6.0489847 35.7145306 3.66156036 37.99639543 -1.5 39.8125 C-8.3318223 41.31387151 -14.22591553 41.0794789 -20.5 37.8125 C-23.5 35.1875 -23.5 35.1875 -25.5 32.8125 C-25.83 32.4825 -26.16 32.1525 -26.5 31.8125 C-26.54063832 30.14632885 -26.542721 28.47861905 -26.5 26.8125 C-22.54 25.3275 -22.54 25.3275 -18.5 23.8125 C-18.99371094 23.40257812 -19.48742187 22.99265625 -19.99609375 22.5703125 C-20.63675781 22.03148437 -21.27742187 21.49265625 -21.9375 20.9375 C-22.57558594 20.40382812 -23.21367187 19.87015625 -23.87109375 19.3203125 C-26.53569836 16.853796 -26.50339155 15.7607789 -26.75 12 C-26.66529029 8.09629416 -26.17077942 5.81712685 -23.5 2.8125 C-16.66247818 -2.41417708 -7.96501553 -2.70241598 0 0 Z M-15.5 23.8125 C-14.27992056 26.5030528 -14.27992056 26.5030528 -12.5 28.8125 C-9.82941149 28.95365161 -7.17567762 28.85497107 -4.5 28.8125 C-4.5 28.1525 -4.5 27.4925 -4.5 26.8125 C-5.76839526 26.30634702 -7.03983102 25.80780901 -8.3125 25.3125 C-9.02019531 25.0340625 -9.72789062 24.755625 -10.45703125 24.46875 C-12.61841216 23.6595838 -12.61841216 23.6595838 -15.5 23.8125 Z " fill="#EAEAEA" transform="translate(184.5,200.1875)"/>
<path d="M0 0 C5.754375 -0.12375 5.754375 -0.12375 11.625 -0.25 C12.82334473 -0.28641602 14.02168945 -0.32283203 15.25634766 -0.36035156 C21.48844732 -0.42523656 25.32063293 -0.28162087 30 4 C33.80418658 9.199055 33.65500323 14.8097582 33 21 C31.69612776 25.21841019 30.46133838 26.63477379 27 29.375 C22.26472302 31.83938071 17.19176385 31.33798101 12 31 C12.020625 32.134375 12.04125 33.26875 12.0625 34.4375 C12 38 12 38 11 39 C7.37 39 3.74 39 0 39 C0 26.13 0 13.26 0 0 Z M12 11 C12 14.3 12 17.6 12 21 C16.1460881 21.34778172 16.1460881 21.34778172 19.875 19.8125 C21.38332602 17.38241919 21.36023622 15.80984248 21 13 C19.04366025 10.58878141 19.04366025 10.58878141 15.375 10.875 C13.704375 10.936875 13.704375 10.936875 12 11 Z " fill="#F3F3F3" transform="translate(218,200)"/>
<path d="M0 0 C11.04736056 -0.78165287 11.04736056 -0.78165287 14.4375 2 C14.953125 2.99 15.46875 3.98 16 5 C16.90910033 6.442297 17.82613373 7.8796165 18.75 9.3125 C19.50313553 10.53974796 20.25423237 11.76826085 21 13 C22.31431172 11.20966193 23.6263953 9.41768797 24.9375 7.625 C25.66839844 6.62726563 26.39929688 5.62953125 27.15234375 4.6015625 C28.9779569 2.17182891 28.9779569 2.17182891 30 0 C34.62 0 39.24 0 44 0 C42.27586746 4.31033134 40.3382416 7.65297142 37.6875 11.375 C37.28595703 11.95515869 36.88441406 12.53531738 36.47070312 13.13305664 C34.84150612 15.47519183 33.20971807 17.75983106 31.33203125 19.91015625 C26.58784308 25.34997319 27.10575161 32.06846236 27 39 C23.04 39 19.08 39 15 39 C15.13535156 37.72382813 15.13535156 37.72382813 15.2734375 36.421875 C15.62966488 23.54288494 9.10773032 15.79971184 1.26928711 6.05200195 C0 4 0 4 0 0 Z " fill="#EBEBEB" transform="translate(475,200)"/>
<path d="M0 0 C12.21 0 24.42 0 37 0 C37 2.97 37 5.94 37 9 C36 10 36 10 33.49609375 10.09765625 C31.98208984 10.08025391 31.98208984 10.08025391 30.4375 10.0625 C29.42558594 10.05347656 28.41367187 10.04445312 27.37109375 10.03515625 C26.19740234 10.01775391 26.19740234 10.01775391 25 10 C25.00785522 11.26444946 25.00785522 11.26444946 25.01586914 12.55444336 C25.03287826 15.67227936 25.04543406 18.79009177 25.05493164 21.90795898 C25.05997057 23.25920386 25.06680177 24.61044326 25.07543945 25.96166992 C25.08752419 27.90020434 25.09269828 29.838778 25.09765625 31.77734375 C25.10551147 33.52905884 25.10551147 33.52905884 25.11352539 35.31616211 C25 38 25 38 24 39 C20.04 39 16.08 39 12 39 C12 29.43 12 19.86 12 10 C8.04 10 4.08 10 0 10 C0 6.7 0 3.4 0 0 Z " fill="#EBEBEB" transform="translate(369,200)"/>
<path d="M0 0 C5.21890571 2.13377134 10.0936316 4.60367631 15 7.375 C15.75458496 7.79765137 16.50916992 8.22030273 17.28662109 8.65576172 C19.86027616 10.09939301 22.4303979 11.54916735 25 13 C26.01610352 13.57298828 27.03220703 14.14597656 28.07910156 14.73632812 C34.72334022 18.48394555 41.36306568 22.2394635 48 26 C48 30.62 48 35.24 48 40 C41.25170068 38.87528345 41.25170068 38.87528345 37.55859375 36.69921875 C36.73713867 36.22202393 35.91568359 35.7448291 35.06933594 35.25317383 C34.20083008 34.73650146 33.33232422 34.2198291 32.4375 33.6875 C30.57701898 32.60122662 28.71633554 31.51529989 26.85546875 30.4296875 C25.89817871 29.86733398 24.94088867 29.30498047 23.95458984 28.72558594 C18.16479074 25.34413659 12.32182616 22.05505826 6.48999023 18.74682617 C5.65282471 18.26963135 4.81565918 17.79243652 3.953125 17.30078125 C2.84179199 16.66910034 2.84179199 16.66910034 1.70800781 16.0246582 C0 15 0 15 -1 14 C-1.0989294 11.83519203 -1.129711 9.66706215 -1.125 7.5 C-1.12757812 6.3140625 -1.13015625 5.128125 -1.1328125 3.90625 C-1 1 -1 1 0 0 Z " fill="#E56C3D" transform="translate(42,226)"/>
<path d="M0 0 C3.96 0 7.92 0 12 0 C12 9.57 12 19.14 12 29 C18.27 29 24.54 29 31 29 C31 32.3 31 35.6 31 39 C20.77 39 10.54 39 0 39 C0 26.13 0 13.26 0 0 Z " fill="#FAFAFA" transform="translate(430,200)"/>
<path d="M0 0 C3.96 0 7.92 0 12 0 C12 9.57 12 19.14 12 29 C17.87883003 28.96042231 17.87883003 28.96042231 23.75756836 28.90991211 C24.48596924 28.90741455 25.21437012 28.90491699 25.96484375 28.90234375 C26.7137085 28.89710693 27.46257324 28.89187012 28.23413086 28.88647461 C30 29 30 29 31 30 C31 32.97 31 35.94 31 39 C20.77 39 10.54 39 0 39 C0 26.13 0 13.26 0 0 Z " fill="#EFEFEF" transform="translate(277,200)"/>
<path d="M0 0 C3.96 0 7.92 0 12 0 C13.81565436 1.81565436 13.12861899 4.31269962 13.13894653 6.72888184 C13.1369223 7.52991333 13.13489807 8.33094482 13.1328125 9.15625 C13.13376923 9.97371704 13.13472595 10.79118408 13.13571167 11.63342285 C13.13639345 13.36515378 13.13453929 15.09688724 13.13037109 16.82861328 C13.12502279 19.48866482 13.13031612 22.1485475 13.13671875 24.80859375 C13.13605797 26.48697954 13.1347768 28.16536523 13.1328125 29.84375 C13.13483673 30.64478149 13.13686096 31.44581299 13.13894653 32.27111816 C13.11495079 37.88504921 13.11495079 37.88504921 12 39 C8.04 39 4.08 39 0 39 C0 26.13 0 13.26 0 0 Z " fill="#D6D6D6" transform="translate(332,200)"/>
<path d="M0 0 C5.13354678 1.48391587 9.4164279 3.77092939 14 6.4375 C18.6103126 9.09362935 23.21070201 11.67270051 28 14 C27.34 14.66 26.68 15.32 26 16 C25.01 16 24.02 16 23 16 C23 16.66 23 17.32 23 18 C23.99 18.33 24.98 18.66 26 19 C24.02 19.66 22.04 20.32 20 21 C21.62635159 22.87030433 22.53738877 23.89880379 25 24.4375 C27 25 27 25 28.4375 26.9375 C31.09575458 30.44639604 34.59288092 30.89822023 38.75 31.9375 C39.8225 32.288125 40.895 32.63875 42 33 C42.33 33.99 42.66 34.98 43 36 C45.50447516 37.21869929 45.50447516 37.21869929 48 38 C48 38.66 48 39.32 48 40 C40.66721002 38.01816487 34.26019215 33.88974012 27.73828125 30.109375 C26.60777344 29.45453125 25.47726563 28.7996875 24.3125 28.125 C23.73790039 27.79209961 23.16330078 27.45919922 22.57128906 27.11621094 C17.21305686 24.04892329 11.71342352 21.29560676 6.15356445 18.61376953 C3.40751309 17.27666354 1.17649852 16.17649852 -1 14 C-1.23046875 10.99609375 -1.23046875 10.99609375 -1.1875 7.4375 C-1.17783203 5.67212891 -1.17783203 5.67212891 -1.16796875 3.87109375 C-1 1 -1 1 0 0 Z " fill="#E06A3C" transform="translate(42,204)"/>
<path d="M0 0 C2.31 0.33 4.62 0.66 7 1 C7 1.66 7 2.32 7 3 C8.258125 3.0825 9.51625 3.165 10.8125 3.25 C14.75613346 3.72129539 14.75613346 3.72129539 16.75 6 C17.1625 6.66 17.575 7.32 18 8 C20.09415804 8.79623822 20.09415804 8.79623822 22 9 C22 9.66 22 10.32 22 11 C22.99 11 23.98 11 25 11 C25 11.66 25 12.32 25 13 C25.66 13 26.32 13 27 13 C27 13.99 27 14.98 27 16 C28.98 16 30.96 16 33 16 C33 16.99 33 17.98 33 19 C32.34 19 31.68 19 31 19 C31.495 20.485 31.495 20.485 32 22 C31 23 31 23 28.5 23.25 C19.04067723 22.57433409 11.09501435 17.56673916 3 13 C3 12.34 3 11.68 3 11 C2.360625 10.7525 1.72125 10.505 1.0625 10.25 C-1 9 -1 9 -1.75 6.875 C-1.8325 6.25625 -1.915 5.6375 -2 5 C-1.34 5 -0.68 5 0 5 C0 3.35 0 1.7 0 0 Z " fill="#EF6F3E" transform="translate(79,204)"/>
<path d="M0 0 C9.25628061 4.51995001 18.32581664 9.2111534 27.20703125 14.43359375 C29.95336884 16.08903764 29.95336884 16.08903764 33 17 C33 14.69 33 12.38 33 10 C32.13375 9.896875 31.2675 9.79375 30.375 9.6875 C26.83316877 8.96601586 24.15687958 7.72876739 21 6 C23.57213134 4.38050989 24.67669159 3.95591249 27.75 4.375 C28.4925 4.58125 29.235 4.7875 30 5 C30 5.66 30 6.32 30 7 C31.65 7 33.3 7 35 7 C35 10.96 35 14.92 35 19 C29.13190493 18.47606294 24.45126259 17.23891142 19 15 C19 14.34 19 13.68 19 13 C18.34 13 17.68 13 17 13 C16.94577053 14.4370809 16.90710277 15.87475462 16.875 17.3125 C16.85179688 18.11300781 16.82859375 18.91351563 16.8046875 19.73828125 C16.84182678 22.28388576 16.84182678 22.28388576 19 25 C14.08558588 23.56347895 9.99761642 21.45840385 5.625 18.875 C4.98433594 18.50246094 4.34367187 18.12992188 3.68359375 17.74609375 C2.11951523 16.83565998 0.55934466 15.91851809 -1 15 C-1 14.67 -1 14.34 -1 14 C0.98 14 2.96 14 5 14 C5.33 12.68 5.66 11.36 6 10 C7.65 9.67 9.3 9.34 11 9 C10.34 9 9.68 9 9 9 C8.67 8.34 8.34 7.68 8 7 C7.01 6.67 6.02 6.34 5 6 C5 5.34 5 4.68 5 4 C2.525 3.01 2.525 3.01 0 2 C0 1.34 0 0.68 0 0 Z " fill="#DE683D" transform="translate(87,181)"/>
<path d="M0 0 C2.64 0.99 5.28 1.98 8 3 C8 3.66 8 4.32 8 5 C9.65 5 11.3 5 13 5 C13.33 5.99 13.66 6.98 14 8 C15.32 8.33 16.64 8.66 18 9 C18.33 11.97 18.66 14.94 19 18 C17.68 18.33 16.36 18.66 15 19 C15 18.01 15 17.02 15 16 C14.01 16.33 13.02 16.66 12 17 C9.3125 16.5625 9.3125 16.5625 7 16 C7 15.34 7 14.68 7 14 C5.02 13.34 3.04 12.68 1 12 C1 11.01 1 10.02 1 9 C-0.65 9 -2.3 9 -4 9 C-3.34 7.35 -2.68 5.7 -2 4 C-1.34 4 -0.68 4 0 4 C0 2.68 0 1.36 0 0 Z " fill="#F5703E" transform="translate(83,228)"/>
<path d="M0 0 C3.33209776 1.28336016 6.49104583 2.70953452 9.64453125 4.3828125 C10.48564453 4.82753906 11.32675781 5.27226562 12.19335938 5.73046875 C13.05767578 6.19066406 13.92199219 6.65085938 14.8125 7.125 C15.69615234 7.59292969 16.57980469 8.06085938 17.49023438 8.54296875 C19.66135525 9.69307603 21.8312226 10.84548146 24 12 C20.98968256 12.93423645 20.13349732 13.04449911 17 12 C17 11.34 17 10.68 17 10 C15.02 10 13.04 10 11 10 C9.74335022 12.90600261 9 14.79604584 9 18 C10.65 18.33 12.3 18.66 14 19 C13.67 19.66 13.34 20.32 13 21 C7.39523177 19.42195846 2.64949374 16.73583615 -2.375 13.875 C-3.20644531 13.40707031 -4.03789063 12.93914062 -4.89453125 12.45703125 C-6.93234954 11.30929451 -8.96735569 10.15686718 -11 9 C-7.02634963 7.79846425 -4.84785711 8.362614 -1 10 C0.75 11.625 0.75 11.625 2 13 C2.66 13 3.32 13 4 13 C5.00217064 9.41672247 5.00217064 9.41672247 4 6 C3.34 6 2.68 6 2 6 C1 3 1 3 0 0 Z " fill="#DD6A3C" transform="translate(69,195)"/>
<path d="M0 0 C1.27500114 -0.00855011 1.27500114 -0.00855011 2.57575989 -0.01727295 C4.38065338 -0.02674089 6.18556429 -0.03326402 7.99047852 -0.03710938 C10.74070955 -0.04677372 13.49018027 -0.07776234 16.24023438 -0.109375 C17.99348514 -0.11590902 19.74674127 -0.12115792 21.5 -0.125 C22.72845894 -0.1435202 22.72845894 -0.1435202 23.98173523 -0.16241455 C28.94381297 -0.1432521 32.2286673 0.55518909 36.58203125 3.203125 C36.25203125 3.863125 35.92203125 4.523125 35.58203125 5.203125 C33.60203125 5.203125 31.62203125 5.203125 29.58203125 5.203125 C29.58203125 4.213125 29.58203125 3.223125 29.58203125 2.203125 C17.37203125 2.203125 5.16203125 2.203125 -7.41796875 2.203125 C-7.08796875 7.153125 -6.75796875 12.103125 -6.41796875 17.203125 C-3.77796875 18.193125 -1.13796875 19.183125 1.58203125 20.203125 C1.58203125 20.863125 1.58203125 21.523125 1.58203125 22.203125 C2.24203125 22.203125 2.90203125 22.203125 3.58203125 22.203125 C3.58203125 22.863125 3.58203125 23.523125 3.58203125 24.203125 C-0.91692954 22.5160147 -5.1429224 20.37948999 -9.41796875 18.203125 C-9.44481187 15.39056219 -9.46473063 12.57825259 -9.48046875 9.765625 C-9.48884766 8.96318359 -9.49722656 8.16074219 -9.50585938 7.33398438 C-9.51448305 5.29017279 -9.47025025 3.24628598 -9.41796875 1.203125 C-7.33757759 -0.87726616 -2.86892333 0.0147059 0 0 Z " fill="#92422B" transform="translate(50.41796875,176.796875)"/>
<path d="M0 0 C1.32 0.33 2.64 0.66 4 1 C4.33 1.66 4.66 2.32 5 3 C7.02463255 3.65213292 7.02463255 3.65213292 9 4 C9 4.66 9 5.32 9 6 C10.32 6.33 11.64 6.66 13 7 C13.94296589 10.66708957 14.11421833 13.35346727 13 17 C11 18 11 18 9.0625 17.75 C6.6956089 16.88931233 5.56539031 15.95673789 4 14 C4 13.34 4 12.68 4 12 C2.68 11.67 1.36 11.34 0 11 C0 10.34 0 9.68 0 9 C0.66 8.67 1.32 8.34 2 8 C1.34 5.36 0.68 2.72 0 0 Z " fill="#F3713F" transform="translate(66,241)"/>
<path d="M0 0 C4.96622349 -0.02465098 9.93241166 -0.04283649 14.89868164 -0.05493164 C16.58944316 -0.0599719 18.28020029 -0.06680405 19.97094727 -0.07543945 C22.39600707 -0.08751857 24.82100944 -0.09323123 27.24609375 -0.09765625 C28.38672523 -0.10539818 28.38672523 -0.10539818 29.55039978 -0.11329651 C31.3673257 -0.11349238 33.18413127 -0.06197277 35 0 C36 1 36 1 36.11352539 4.32641602 C36.11336629 5.80225556 36.10767314 7.27810069 36.09765625 8.75390625 C36.0962413 9.52935287 36.09482635 10.3047995 36.09336853 11.10374451 C36.08775345 13.59003494 36.07519846 16.0762366 36.0625 18.5625 C36.05748694 20.24413933 36.0529237 21.92578006 36.04882812 23.60742188 C36.03777913 27.73831566 36.02050445 31.86914276 36 36 C35.67 36 35.34 36 35 36 C34.67 25.11 34.34 14.22 34 3 C24.1 3 14.2 3 4 3 C6.475 3.99 6.475 3.99 9 5 C9.8125 7.125 9.8125 7.125 10 9 C8.51245994 8.26674793 7.03513808 7.51273922 5.5625 6.75 C4.73878906 6.33234375 3.91507812 5.9146875 3.06640625 5.484375 C0.61256314 3.72168997 0.55643878 2.86168513 0 0 Z " fill="#894029" transform="translate(97,177)"/>
<path d="M0 0 C0.33 0 0.66 0 1 0 C1 1.65 1 3.3 1 5 C1.66 5 2.32 5 3 5 C3.05823729 9.5416125 3.09367675 14.0831284 3.125 18.625 C3.15013672 20.55279297 3.15013672 20.55279297 3.17578125 22.51953125 C3.18222656 23.76347656 3.18867188 25.00742188 3.1953125 26.2890625 C3.20578613 27.43068848 3.21625977 28.57231445 3.22705078 29.74853516 C2.99052625 33.13566817 2.2095701 35.84005042 1 39 C0.67 39 0.34 39 0 39 C0 26.13 0 13.26 0 0 Z " fill="#C9C9C9" transform="translate(430,200)"/>
<path d="M0 0 C0.33 0 0.66 0 1 0 C1.495 8.415 1.495 8.415 2 17 C-2.75974622 16.04805076 -5.62579797 14.76344557 -9.8125 12.4375 C-10.40998047 12.10814453 -11.00746094 11.77878906 -11.62304688 11.43945312 C-13.08533998 10.63226733 -14.5431399 9.81695083 -16 9 C-15.4225 8.87625 -14.845 8.7525 -14.25 8.625 C-11.97664233 7.99351176 -10.0746471 7.11141809 -8 6 C-7.60167969 6.49371094 -7.20335938 6.98742187 -6.79296875 7.49609375 C-6.26316406 8.13675781 -5.73335937 8.77742187 -5.1875 9.4375 C-4.66542969 10.07558594 -4.14335938 10.71367187 -3.60546875 11.37109375 C-1.99165589 13.2548275 -1.99165589 13.2548275 1 14 C0.67 13.01 0.34 12.02 0 11 C-0.0685495 9.10529184 -0.08480372 7.2083166 -0.0625 5.3125 C-0.05347656 4.31863281 -0.04445312 3.32476562 -0.03515625 2.30078125 C-0.02355469 1.54152344 -0.01195312 0.78226563 0 0 Z " fill="#D06438" transform="translate(131,203)"/>
<path d="M0 0 C0.99 0.33 1.98 0.66 3 1 C3 5.62 3 10.24 3 15 C-2.16360126 14.13939979 -4.54050604 13.42190508 -8.875 10.9375 C-9.84179688 10.38964844 -10.80859375 9.84179688 -11.8046875 9.27734375 C-12.52914062 8.85582031 -13.25359375 8.43429687 -14 8 C-10.98968256 7.06576355 -10.13349732 6.95550089 -7 8 C-7 8.66 -7 9.32 -7 10 C-5.02 10 -3.04 10 -1 10 C-1 10.66 -1 11.32 -1 12 C-0.34 12 0.32 12 1 12 C0.34 10.02 -0.32 8.04 -1 6 C-0.34 6 0.32 6 1 6 C0.67 4.02 0.34 2.04 0 0 Z " fill="#BE603B" transform="translate(87,251)"/>
<path d="M0 0 C1.98 0.66 3.96 1.32 6 2 C6 2.99 6 3.98 6 5 C5.34 5 4.68 5 4 5 C4 6.65 4 8.3 4 10 C3.34 10 2.68 10 2 10 C1.67 11.32 1.34 12.64 1 14 C1.99 14.33 2.98 14.66 4 15 C2.68 15 1.36 15 0 15 C-1 14 -1 14 -1.1328125 11.09375 C-1.13023438 9.9078125 -1.12765625 8.721875 -1.125 7.5 C-1.12757812 6.3140625 -1.13015625 5.128125 -1.1328125 3.90625 C-1 1 -1 1 0 0 Z " fill="#DC6C41" transform="translate(42,204)"/>
<path d="M0 0 C4.66248914 1.68215295 8.83419863 4.05369612 13.125 6.5 C13.84042969 6.90347656 14.55585937 7.30695313 15.29296875 7.72265625 C18.26640058 9.40667465 21.15408274 11.10272183 24 13 C19.18061476 13.23509196 15.53701494 12.45184478 11 11 C11 10.01 11 9.02 11 8 C10.34 8 9.68 8 9 8 C9 7.34 9 6.68 9 6 C8.01 6 7.02 6 6 6 C6 5.34 6 4.68 6 4 C4.35 3.67 2.7 3.34 1 3 C0.67 2.01 0.34 1.02 0 0 Z " fill="#C3613E" transform="translate(95,209)"/>
<path d="M0 0 C0.99 0 1.98 0 3 0 C3 9.57 3 19.14 3 29 C2.34 28.67 1.68 28.34 1 28 C0.67 18.76 0.34 9.52 0 0 Z " fill="#C1C1C1" transform="translate(439,200)"/>
<path d="M0 0 C5.94 0.33 11.88 0.66 18 1 C18.33 1.99 18.66 2.98 19 4 C14.05 4 9.1 4 4 4 C4.66 4.66 5.32 5.32 6 6 C5.01 6.33 4.02 6.66 3 7 C3 6.34 3 5.68 3 5 C1.68 4.67 0.36 4.34 -1 4 C-0.67 2.68 -0.34 1.36 0 0 Z " fill="#AD5433" transform="translate(61,188)"/>
<path d="M0 0 C8.23078108 3.94470614 16.1127908 8.41996353 24 13 C23.34 13.66 22.68 14.32 22 15 C20.68 14.34 19.36 13.68 18 13 C18 12.34 18 11.68 18 11 C15.525 10.505 15.525 10.505 13 10 C13 9.34 13 8.68 13 8 C10.03 7.505 10.03 7.505 7 7 C7 6.34 7 5.68 7 5 C6.21625 4.9175 5.4325 4.835 4.625 4.75 C2 4 2 4 0.8359375 1.953125 C0.56007812 1.30859375 0.28421875 0.6640625 0 0 Z " fill="#B25A37" transform="translate(57,234)"/>
<path d="M0 0 C1.32 0.66 2.64 1.32 4 2 C3.67 4.97 3.34 7.94 3 11 C2.34 11 1.68 11 1 11 C1 10.34 1 9.68 1 9 C-0.98 9 -2.96 9 -5 9 C-4.34 6.36 -3.68 3.72 -3 1 C-2.34 1.33 -1.68 1.66 -1 2 C-1 2.99 -1 3.98 -1 5 C-0.67 3.35 -0.34 1.7 0 0 Z " fill="#F5703D" transform="translate(85,252)"/>
<path d="M0 0 C0.66 0.33 1.32 0.66 2 1 C2 2.98 2 4.96 2 7 C0.25 8.125 0.25 8.125 -2 9 C-5.31079119 7.92886167 -6.00884235 6.98673647 -8 4 C-4.535 3.505 -4.535 3.505 -1 3 C-0.67 2.01 -0.34 1.02 0 0 Z " fill="#F7703D" transform="translate(69,220)"/>
<path d="M0 0 C3.57735001 0.61326 6.64436943 1.64176858 10 3 C11.85625 3.4640625 11.85625 3.4640625 13.75 3.9375 C15.35875 4.4634375 15.35875 4.4634375 17 5 C17.33 5.99 17.66 6.98 18 8 C20.50447516 9.21869929 20.50447516 9.21869929 23 10 C23 10.66 23 11.32 23 12 C17.76814847 10.58598607 13.33577798 8.08682905 8.63671875 5.46484375 C5.79501663 3.88612035 2.92238447 2.42170055 0 1 C0 0.67 0 0.34 0 0 Z " fill="#AE573A" transform="translate(67,232)"/>
<path d="M0 0 C1.65 0.33 3.3 0.66 5 1 C5.71484375 2.703125 5.71484375 2.703125 6 5 C4.56640625 7.359375 4.56640625 7.359375 2.5625 9.75 C1.57443359 10.94882813 1.57443359 10.94882813 0.56640625 12.171875 C-0.20896484 13.07679688 -0.20896484 13.07679688 -1 14 C-2 12 -2 12 -1.25 8.9375 C-0.8375 7.968125 -0.425 6.99875 0 6 C0.99 5.67 1.98 5.34 3 5 C3.33 4.34 3.66 3.68 4 3 C2.35 3 0.7 3 -1 3 C-0.67 2.01 -0.34 1.02 0 0 Z " fill="#A55035" transform="translate(123,225)"/>
<path d="M0 0 C1.8125 0.1875 1.8125 0.1875 4 1 C5.625 3.4375 5.625 3.4375 7 6 C7.66 6.66 8.32 7.32 9 8 C1.25 7.25 1.25 7.25 -1 5 C-0.625 2.375 -0.625 2.375 0 0 Z " fill="#F47040" transform="translate(44,213)"/>
<path d="M0 0 C2.31 0.33 4.62 0.66 7 1 C5.41641358 4.16717283 4.54736301 5.73268318 1.3125 7.3125 C0.549375 7.539375 -0.21375 7.76625 -1 8 C-1.33 7.01 -1.66 6.02 -2 5 C-1.34 5 -0.68 5 0 5 C0 3.35 0 1.7 0 0 Z " fill="#F66E3C" transform="translate(79,204)"/>
<path d="M0 0 C0.33 0.66 0.66 1.32 1 2 C2.66321482 2.35015049 4.33034549 2.68197057 6 3 C6.99 3.66 7.98 4.32 9 5 C8.67 6.65 8.34 8.3 8 10 C7.01 10 6.02 10 5 10 C5.66 8.68 6.32 7.36 7 6 C5.63875 5.5978125 5.63875 5.5978125 4.25 5.1875 C1.28528037 4.10423706 -0.6169754 3.01640543 -3 1 C-2.01 0.67 -1.02 0.34 0 0 Z " fill="#B45735" transform="translate(103,225)"/>
<path d="M0 0 C0 4.29 0 8.58 0 13 C1.65 13 3.3 13 5 13 C5 13.33 5 13.66 5 14 C3.02 14 1.04 14 -1 14 C-2.75747614 9.49646738 -3.19294408 5.82360189 -3 1 C-1 0 -1 0 0 0 Z " fill="#ACACAC" transform="translate(230,208)"/>
<path d="M0 0 C1.051875 0.433125 1.051875 0.433125 2.125 0.875 C7.41325615 3.12355088 7.41325615 3.12355088 13 4 C13 4.66 13 5.32 13 6 C8.545 6.495 8.545 6.495 4 7 C4.33 6.01 4.66 5.02 5 4 C3.35 4 1.7 4 0 4 C0 2.68 0 1.36 0 0 Z " fill="#C2603A" transform="translate(96,233)"/>
<path d="M0 0 C0.33 0 0.66 0 1 0 C1.33 5.61 1.66 11.22 2 17 C0.35 16.67 -1.3 16.34 -3 16 C-3.33 15.01 -3.66 14.02 -4 13 C-1.525 13.495 -1.525 13.495 1 14 C0.67 13.01 0.34 12.02 0 11 C-0.0685495 9.10529184 -0.08480372 7.2083166 -0.0625 5.3125 C-0.05347656 4.31863281 -0.04445312 3.32476562 -0.03515625 2.30078125 C-0.02355469 1.54152344 -0.01195312 0.78226563 0 0 Z " fill="#B96542" transform="translate(131,203)"/>
<path d="M0 0 C0.721875 0.144375 1.44375 0.28875 2.1875 0.4375 C3.99102553 0.79820511 5.80424295 1.11489185 7.625 1.375 C10.29372096 2.07729499 11.34366615 2.82061335 13 5 C13 5.66 13 6.32 13 7 C8.1725201 5.58707905 4.2837641 3.57025846 0 1 C0 0.67 0 0.34 0 0 Z " fill="#B35C39" transform="translate(58,203)"/>
<path d="M0 0 C4.49797113 1.68673918 8.72886302 3.81673892 13 6 C12.67 6.66 12.34 7.32 12 8 C11.01 8 10.02 8 9 8 C9 7.34 9 6.68 9 6 C8.01 6 7.02 6 6 6 C6 5.34 6 4.68 6 4 C4.35 3.67 2.7 3.34 1 3 C0.67 2.01 0.34 1.02 0 0 Z " fill="#A35332" transform="translate(95,209)"/>
<path d="M0 0 C0.33 0.99 0.66 1.98 1 3 C3.01508358 3.73323796 3.01508358 3.73323796 5 4 C5 4.66 5 5.32 5 6 C0.43545749 5.45660208 -2.9728176 4.20536179 -7 2 C-4.35261084 0.5393715 -3.10551666 0 0 0 Z " fill="#B65737" transform="translate(115,185)"/>
<path d="M0 0 C0.66 0.33 1.32 0.66 2 1 C1.814375 1.78375 1.62875 2.5675 1.4375 3.375 C0.74037734 5.97089775 0.74037734 5.97089775 2 8 C0.68 8.99 -0.64 9.98 -2 11 C-2.66 9.35 -3.32 7.7 -4 6 C-3.01 5.67 -2.02 5.34 -1 5 C-0.67 3.35 -0.34 1.7 0 0 Z " fill="#E66A39" transform="translate(67,194)"/>
<path d="M0 0 C3.7910119 1.44950455 7.3874638 3.15172566 11 5 C8 7 8 7 5.9375 6.625 C5.298125 6.41875 4.65875 6.2125 4 6 C3.34 6 2.68 6 2 6 C1.33333333 4 0.66666667 2 0 0 Z " fill="#AD5633" transform="translate(69,195)"/>
<path d="M0 0 C4.58826282 1.93726652 6.80528594 3.48864333 9 8 C6.83125748 7.49396008 5.00032373 7.00016187 3 6 C3 5.01 3 4.02 3 3 C1.68 2.67 0.36 2.34 -1 2 C-0.67 1.34 -0.34 0.68 0 0 Z " fill="#D0673E" transform="translate(50,230)"/>
<path d="M0 0 C4.8274799 1.41292095 8.7162359 3.42974154 13 6 C9.98968256 6.93423645 9.13349732 7.04449911 6 6 C6 5.34 6 4.68 6 4 C4.02 3.34 2.04 2.68 0 2 C0 1.34 0 0.68 0 0 Z " fill="#AA5735" transform="translate(80,201)"/>
<path d="M0 0 C1.98 0.66 3.96 1.32 6 2 C6 2.99 6 3.98 6 5 C5.67 4.34 5.34 3.68 5 3 C3.35 3 1.7 3 0 3 C0 5.97 0 8.94 0 12 C-0.33 12 -0.66 12 -1 12 C-1.02687279 10.18757948 -1.04633715 8.37504767 -1.0625 6.5625 C-1.07410156 5.55316406 -1.08570313 4.54382813 -1.09765625 3.50390625 C-1 1 -1 1 0 0 Z " fill="#844029" transform="translate(42,204)"/>
<path d="M0 0 C2.64 0.33 5.28 0.66 8 1 C8.33 1.99 8.66 2.98 9 4 C9.66 4 10.32 4 11 4 C11 4.66 11 5.32 11 6 C7.2089881 4.55049545 3.6125362 2.84827434 0 1 C0 0.67 0 0.34 0 0 Z " fill="#BB5837" transform="translate(43,195)"/>
<path d="M0 0 C3.96 1.98 7.92 3.96 12 6 C11.34 6.66 10.68 7.32 10 8 C7.525 7.01 7.525 7.01 5 6 C5 5.34 5 4.68 5 4 C2.525 3.01 2.525 3.01 0 2 C0 1.34 0 0.68 0 0 Z " fill="#A84F32" transform="translate(87,181)"/>
<path d="M0 0 C4.30764815 1.56641751 8.06171464 3.68336156 12 6 C11.34 6.66 10.68 7.32 10 8 C8.68 7.34 7.36 6.68 6 6 C6 5.34 6 4.68 6 4 C4.35 3.67 2.7 3.34 1 3 C0.67 2.01 0.34 1.02 0 0 Z " fill="#AC5332" transform="translate(69,241)"/>
<path d="M0 0 C2.64 0 5.28 0 8 0 C8 0.99 8 1.98 8 3 C8.66 3.33 9.32 3.66 10 4 C9.01 4.495 9.01 4.495 8 5 C6.0546875 4.22265625 6.0546875 4.22265625 3.875 3.0625 C3.15054688 2.68222656 2.42609375 2.30195313 1.6796875 1.91015625 C1.12539062 1.60980469 0.57109375 1.30945313 0 1 C0 0.67 0 0.34 0 0 Z " fill="#C35E38" transform="translate(90,244)"/>
<path d="M0 0 C0.33 0 0.66 0 1 0 C1 2.97 1 5.94 1 9 C-0.32 9.33 -1.64 9.66 -3 10 C-2.01 6.7 -1.02 3.4 0 0 Z " fill="#898989" transform="translate(405,200)"/>
<path d="M0 0 C1.32 0 2.64 0 4 0 C4 2.64 4 5.28 4 8 C2 6.25 2 6.25 0 4 C0 2.68 0 1.36 0 0 Z " fill="#C4C4C4" transform="translate(475,200)"/>
<path d="M0 0 C2.31 0.33 4.62 0.66 7 1 C7 1.66 7 2.32 7 3 C7.99 3.33 8.98 3.66 10 4 C9.67 4.66 9.34 5.32 9 6 C6.03 4.35 3.06 2.7 0 1 C0 0.67 0 0.34 0 0 Z " fill="#C35E3B" transform="translate(63,252)"/>
<path d="M0 0 C3.68754757 0.49831724 5.60490662 1.10067643 8 4 C5.36 4 2.72 4 0 4 C0 2.68 0 1.36 0 0 Z " fill="#C25B3A" transform="translate(48,208)"/>
<path d="M0 0 C3.24208567 0.35049575 4.61527704 0.56221181 6.8125 3.0625 C7.204375 3.701875 7.59625 4.34125 8 5 C4.62537285 4.45276317 2.91765 3.9451 0 2 C0 1.34 0 0.68 0 0 Z " fill="#CACACA" transform="translate(181,200)"/>
<path d="M0 0 C1.65 0.33 3.3 0.66 5 1 C5.33 2.32 5.66 3.64 6 5 C5.34 5 4.68 5 4 5 C4 4.34 4 3.68 4 3 C2.35 3 0.7 3 -1 3 C-0.67 2.01 -0.34 1.02 0 0 Z " fill="#B55936" transform="translate(123,225)"/>
<path d="M0 0 C2.64 0 5.28 0 8 0 C8.33 0.99 8.66 1.98 9 3 C7.3125 3.75 7.3125 3.75 5 4 C2.25 2.0625 2.25 2.0625 0 0 Z " fill="#C55F3E" transform="translate(86,218)"/>
<path d="M0 0 C0.66 0.33 1.32 0.66 2 1 C1.01 2.32 0.02 3.64 -1 5 C-2.65 4.67 -4.3 4.34 -6 4 C-3.94766315 1.7522025 -2.99332739 0.9977758 0 0 Z " fill="#C45D37" transform="translate(111,249)"/>
<path d="M0 0 C0.66 1.32 1.32 2.64 2 4 C0.71034824 5.37562854 -0.62689293 6.70766393 -2 8 C-2.66 8 -3.32 8 -4 8 C-2.87548273 5.0280615 -1.77706209 2.66559313 0 0 Z " fill="#BDBDBD" transform="translate(501,206)"/>
<path d="M0 0 C2.22189824 2.22189824 2.92598892 4.08482708 4 7 C2.02 6.34 0.04 5.68 -2 5 C-2 3.68 -2 2.36 -2 1 C-1.34 0.67 -0.68 0.34 0 0 Z " fill="#CA5E35" transform="translate(102,199)"/>
<path d="M0 0 C1.32 0.33 2.64 0.66 4 1 C3.34 1 2.68 1 2 1 C2 1.99 2 2.98 2 4 C1.34 4 0.68 4 0 4 C-0.33 4.66 -0.66 5.32 -1 6 C-1.66 6 -2.32 6 -3 6 C-2 4 -1 2 0 0 Z " fill="#B1B1B1" transform="translate(505,200)"/>
<path d="M0 0 C2.64 0.33 5.28 0.66 8 1 C7.67 2.32 7.34 3.64 7 5 C3.535 3.02 3.535 3.02 0 1 C0 0.67 0 0.34 0 0 Z " fill="#BD5E3E" transform="translate(45,242)"/>
<path d="M0 0 C0.763125 0.309375 1.52625 0.61875 2.3125 0.9375 C4.18789677 1.67893593 6.08684652 2.36228217 8 3 C7.67 3.66 7.34 4.32 7 5 C4.0625 4.1875 4.0625 4.1875 1 3 C0.67 2.01 0.34 1.02 0 0 Z " fill="#A05034" transform="translate(112,195)"/>
</svg>
